<svg xmlns="http://www.w3.org/2000/svg" xmlns:xlink="http://www.w3.org/1999/xlink" width="500" zoomAndPan="magnify" viewBox="0 0 375 374.999991" height="500" preserveAspectRatio="xMidYMid meet" version="1.0"><defs><g/><clipPath id="c7368adcb6"><path d="M 28.523438 5.636719 L 225.023438 5.636719 L 225.023438 301.136719 L 28.523438 301.136719 Z M 28.523438 5.636719 " clip-rule="nonzero"/></clipPath><clipPath id="f6f82fb4e2"><path d="M 64 5.636719 L 324 5.636719 L 324 299.636719 L 64 299.636719 Z M 64 5.636719 " clip-rule="nonzero"/></clipPath><clipPath id="2fceee3d8b"><path d="M 159.625 21.429688 L 238.757812 21.429688 L 238.757812 91.523438 L 159.625 91.523438 Z M 159.625 21.429688 " clip-rule="nonzero"/></clipPath><clipPath id="913a259841"><path d="M 165.625 21.429688 L 232.691406 21.429688 C 236.003906 21.429688 238.691406 24.117188 238.691406 27.429688 L 238.691406 85.523438 C 238.691406 88.839844 236.003906 91.523438 232.691406 91.523438 L 165.625 91.523438 C 162.3125 91.523438 159.625 88.839844 159.625 85.523438 L 159.625 27.429688 C 159.625 24.117188 162.3125 21.429688 165.625 21.429688 Z M 165.625 21.429688 " clip-rule="nonzero"/></clipPath></defs><rect x="-37.5" width="450" fill="#ffffff" y="-37.499999" height="449.999989" fill-opacity="1"/><rect x="-37.5" width="450" fill="#ffffff" y="-37.499999" height="449.999989" fill-opacity="1"/><g clip-path="url(#c7368adcb6)"><path fill="#4b0082" d="M 170.273438 145.757812 C 127.351562 126.554688 73.699219 116.957031 73.699219 64.4375 C 73.699219 33.375 95.15625 6.832031 135.816406 6.832031 C 178.738281 6.832031 200.195312 32.8125 211.492188 71.210938 C 213.183594 76.296875 214.886719 83.070312 214.886719 87.023438 L 214.886719 89.847656 L 217.707031 89.847656 L 217.707031 5.703125 L 214.886719 5.703125 L 214.886719 9.09375 C 214.886719 12.488281 211.492188 17 208.109375 19.261719 C 206.417969 19.824219 204.71875 20.394531 202.464844 20.394531 C 182.699219 20.382812 170.273438 5.703125 135.824219 5.703125 C 81.605469 5.703125 47.160156 36.195312 47.160156 83.640625 C 47.160156 118.65625 66.921875 136.160156 92.332031 149.152344 C 55.632812 155.925781 28.523438 178.515625 28.523438 218.042969 C 28.523438 270.5625 75.960938 301.058594 124.527344 301.058594 C 136.386719 301.058594 148.246094 298.796875 158.414062 294.84375 C 161.234375 294.28125 163.496094 293.152344 165.757812 292.019531 C 170.273438 290.328125 174.792969 288.628906 177.617188 286.9375 C 205.859375 274.515625 225.054688 247.96875 225.054688 215.214844 C 225.054688 177.382812 201.894531 159.878906 170.273438 145.757812 Z M 124.527344 299.367188 C 78.78125 299.367188 31.347656 267.171875 31.347656 218.042969 C 31.347656 178.515625 60.148438 157.046875 96.285156 151.402344 C 140.339844 172.300781 198.503906 180.207031 198.503906 234.988281 C 198.511719 276.210938 162.367188 299.367188 124.527344 299.367188 Z M 129.390625 152.703125 C 121.539062 149.667969 113.464844 146.546875 105.882812 143.171875 L 97.566406 138.921875 C 69.921875 124.792969 58.640625 108.769531 58.640625 83.632812 C 58.640625 75.15625 59.902344 67.347656 62.332031 60.292969 C 62.261719 61.667969 62.21875 63.042969 62.21875 64.4375 C 62.21875 87.578125 71.085938 105.800781 89.34375 120.140625 C 104.351562 131.917969 123.78125 139.511719 142.574219 146.847656 C 150.261719 149.84375 158.210938 152.945312 165.589844 156.25 C 195.207031 169.476562 213.570312 183.949219 213.570312 215.230469 C 213.570312 223.003906 212.328125 230.429688 209.960938 237.328125 C 209.984375 236.554688 209.996094 235.777344 209.996094 234.996094 C 209.996094 183.84375 167.167969 167.296875 129.390625 152.703125 Z M 129.390625 152.703125 " fill-opacity="1" fill-rule="nonzero"/></g><path fill="#4b0082" d="M 96.613281 87.820312 C 96.890625 87.019531 97.230469 86.1875 97.28125 85.988281 C 98.078125 82.898438 98.414062 79.65625 98.320312 76.464844 C 98.070312 67.730469 95.097656 60.039062 90.429688 52.675781 C 89.019531 50.457031 87.523438 48.292969 86.0625 46.105469 C 85.890625 45.84375 85.046875 44.195312 84.636719 44.238281 C 84.335938 44.273438 84.570312 46.84375 84.578125 47.050781 C 84.722656 50.289062 84.777344 53.550781 84.679688 56.789062 C 84.417969 65.800781 84.4375 75.070312 87.835938 83.617188 C 88.992188 86.523438 90.9375 90.367188 94.179688 91.617188 C 98.789062 107.371094 108.445312 120.707031 116.019531 135.183594 C 115.082031 133.953125 114.113281 132.753906 113.109375 131.582031 C 104.226562 121.226562 93.089844 114.179688 80.039062 110.214844 C 77.214844 109.355469 74.382812 108.570312 71.519531 107.863281 C 71.191406 107.78125 69.117188 107.039062 68.894531 107.398438 C 68.570312 107.933594 70.558594 110.355469 70.835938 110.777344 C 73.214844 114.351562 75.71875 117.847656 78.109375 121.417969 C 85.777344 132.878906 97.320312 140.632812 110.003906 145.765625 C 113.179688 147.046875 118.488281 149.640625 122.320312 149.265625 C 127.3125 163.054688 129.074219 177.390625 128.453125 191.921875 C 128.039062 190.003906 127.582031 188.09375 127.09375 186.195312 C 125.035156 178.199219 121.964844 167.757812 115.59375 161.609375 C 115.9375 161.132812 116.199219 160.585938 116.363281 159.988281 C 117.078125 157.3125 115.457031 154.546875 112.742188 153.816406 C 110.023438 153.089844 107.238281 154.671875 106.519531 157.351562 C 105.804688 160.027344 107.425781 162.792969 110.140625 163.519531 C 111.042969 163.761719 111.957031 163.746094 112.800781 163.523438 C 119.101562 169.148438 121.882812 179.324219 123.855469 186.988281 C 124.121094 188.015625 124.375 189.046875 124.617188 190.082031 C 120.785156 180.351562 115.125 171.019531 107.207031 164.03125 C 106.125 163.078125 100.125 157.125 98.230469 158.042969 C 97.738281 158.28125 98.847656 160.875 98.957031 161.246094 C 99.996094 164.738281 100.65625 168.347656 101.261719 171.929688 C 103.355469 184.308594 108.175781 194.320312 117.472656 203.238281 C 120.15625 205.8125 123.960938 207.1875 126.640625 209.625 C 125.613281 216.785156 124.414062 223.914062 123.351562 231.058594 C 122.878906 230.128906 122.402344 229.199219 121.917969 228.277344 C 119.003906 222.730469 115.449219 217.644531 110.902344 213.285156 C 110.792969 213.183594 110.675781 213.09375 110.546875 213.023438 C 110.605469 212.871094 110.65625 212.710938 110.699219 212.546875 C 111.417969 209.871094 109.796875 207.105469 107.078125 206.378906 C 104.363281 205.652344 101.578125 207.234375 100.859375 209.910156 C 100.140625 212.589844 101.765625 215.351562 104.480469 216.082031 C 105.886719 216.457031 107.316406 216.214844 108.460938 215.519531 C 108.5 215.5625 108.539062 215.605469 108.585938 215.648438 C 112.867188 219.753906 116.207031 224.554688 118.953125 229.78125 C 119.910156 231.601562 120.839844 233.441406 121.742188 235.289062 C 121.875 235.5625 121.890625 236.023438 121.957031 236.429688 C 122.050781 236.996094 122.1875 237.515625 122.359375 237.867188 L 122.386719 237.914062 C 121.484375 244.765625 120.800781 251.644531 120.609375 258.59375 C 120.488281 262.949219 120.660156 267.316406 120.832031 271.667969 C 120.859375 272.449219 120.6875 274.058594 120.878906 275.269531 C 121.019531 276.148438 121.351562 276.875 121.808594 277.347656 C 122.449219 278.007812 123.507812 278.03125 124.171875 277.402344 C 124.8125 276.792969 124.851562 275.792969 124.273438 275.132812 C 124.253906 275.03125 124.128906 274.371094 124.121094 273.960938 C 124.105469 273.042969 124.191406 272.105469 124.171875 271.566406 C 124.003906 267.285156 123.832031 262.992188 123.953125 258.710938 C 124.121094 252.578125 124.675781 246.5 125.429688 240.453125 C 126.222656 239.5625 127.125 238.660156 127.203125 238.585938 C 131.019531 234.878906 135.691406 231.804688 140.296875 229.15625 C 151.125 222.921875 158.21875 215.179688 160.257812 202.621094 C 160.570312 200.710938 162.1875 193.582031 160.554688 191.824219 C 160.441406 191.703125 158.367188 193.964844 158.210938 194.113281 C 155.507812 196.742188 152.851562 199.402344 150.253906 202.136719 C 144.304688 208.386719 138.722656 214.824219 133.171875 221.410156 C 130.941406 224.058594 128.765625 226.457031 127.015625 229.128906 C 128.292969 220.785156 129.710938 212.457031 130.769531 204.0625 C 131.925781 194.902344 132.246094 185.777344 131.546875 176.769531 C 132.472656 176.410156 134.128906 176.027344 134.71875 175.730469 C 137.511719 174.3125 140.105469 172.550781 142.527344 170.578125 C 152.796875 162.210938 158.902344 149.699219 160.953125 136.816406 C 161.625 132.621094 162.101562 128.355469 162.132812 124.101562 C 162.136719 123.519531 162.382812 120.695312 161.492188 120.421875 C 161.050781 120.285156 159.785156 123.3125 159.609375 123.625 C 157.703125 127.035156 155.183594 130.003906 152.859375 133.128906 C 145.558594 142.964844 138.207031 153.324219 133.308594 164.664062 C 133.46875 162.453125 133.640625 160.242188 133.867188 158.039062 C 134.894531 148.003906 136.335938 138.34375 140.914062 129.277344 C 140.929688 129.246094 140.945312 129.21875 140.957031 129.1875 C 143.460938 129.535156 145.882812 127.996094 146.542969 125.527344 C 147.261719 122.851562 145.636719 120.085938 142.921875 119.359375 C 140.207031 118.628906 137.417969 120.214844 136.699219 122.890625 C 136.226562 124.65625 136.769531 126.457031 137.976562 127.691406 C 137.957031 127.722656 137.941406 127.753906 137.925781 127.785156 C 133.160156 137.214844 131.609375 147.246094 130.539062 157.683594 C 130.300781 160.007812 130.121094 162.339844 129.953125 164.671875 C 128.492188 156.875 126.175781 149.199219 122.867188 141.699219 C 120.277344 135.824219 117.160156 130.226562 113.957031 124.683594 C 113.9375 124.257812 113.78125 123.238281 113.847656 122.800781 C 114.0625 121.371094 114.363281 119.941406 114.761719 118.550781 C 115.894531 114.589844 117.609375 110.816406 119.335938 107.085938 C 124.996094 94.859375 128.667969 83.972656 127.351562 70.199219 C 127.054688 67.089844 126.605469 63.960938 125.761719 60.945312 C 125.65625 60.578125 125.203125 58.210938 124.714844 58.082031 C 124.503906 58.023438 123.164062 61.574219 123.058594 61.804688 C 121.230469 65.769531 119.136719 69.621094 117.109375 73.484375 C 112.425781 82.398438 111.425781 91.675781 110.542969 101.558594 C 110.292969 104.347656 110.027344 106.941406 109.867188 109.449219 C 109.234375 106.972656 108.679688 104.480469 108.25 101.957031 C 106.480469 91.511719 105.808594 80.984375 107.34375 70.511719 C 109.25 70.203125 110.886719 68.832031 111.414062 66.867188 C 112.128906 64.191406 110.507812 61.425781 107.792969 60.699219 C 105.074219 59.972656 102.289062 61.554688 101.570312 64.230469 C 100.960938 66.503906 102.042969 68.84375 104.046875 69.941406 C 102.449219 80.777344 103.121094 91.671875 104.957031 102.484375 C 105.585938 106.1875 106.480469 109.84375 107.488281 113.46875 C 102.941406 105.34375 98.855469 97.023438 96.613281 87.820312 Z M 127.132812 197.484375 L 127.132812 197.488281 C 127.15625 197.472656 127.183594 197.460938 127.210938 197.445312 C 127.183594 197.457031 127.15625 197.472656 127.132812 197.484375 Z M 127.132812 197.484375 " fill-opacity="1" fill-rule="evenodd"/><g clip-path="url(#f6f82fb4e2)"><path fill="#4b0082" d="M 147.898438 246.316406 L 103.101562 246.316406 L 103.101562 253.671875 C 103.101562 264.019531 101.777344 271.855469 99.113281 277.175781 C 96.449219 282.5 92.308594 286.046875 86.703125 287.820312 C 86.101562 287.820312 84.777344 288.117188 82.699219 288.707031 C 80.050781 289.003906 77.832031 289.300781 76.046875 289.59375 C 70.734375 290.1875 66.746094 290.480469 64.082031 290.480469 L 64.082031 299.351562 L 304.015625 299.351562 L 323.972656 223.957031 L 310.667969 223.957031 C 302.675781 243.175781 293.066406 257.070312 281.84375 265.644531 C 270.601562 274.515625 257.140625 279.691406 241.480469 281.167969 C 234.382812 282.351562 224.1875 282.941406 210.882812 282.941406 L 185.148438 282.941406 L 161.203125 281.167969 C 156.183594 280.578125 152.78125 279.246094 151.011719 277.175781 C 148.929688 275.105469 147.898438 271.855469 147.898438 267.417969 Z M 165.53125 135.699219 L 159.601562 153.882812 L 211.3125 153.882812 C 215.75 153.882812 219.890625 154.03125 223.742188 154.328125 L 225.066406 154.328125 C 231.578125 154.917969 236.753906 155.65625 240.585938 156.546875 C 247.101562 158.023438 251.675781 160.09375 254.339844 162.753906 C 257.296875 166.300781 259.359375 169.996094 260.542969 173.839844 L 264.980469 197.347656 L 275.1875 197.347656 L 275.1875 94.011719 L 264.980469 94.011719 C 262.917969 106.726562 260.40625 115.890625 257.449219 121.507812 C 254.785156 126.535156 250.351562 130.230469 244.144531 132.597656 C 237.921875 134.664062 227.28125 135.699219 212.207031 135.699219 Z M 103.101562 51.347656 L 147.898438 51.347656 L 147.898438 35.027344 C 148.484375 30.589844 149.53125 27.339844 151.011719 25.269531 C 152.179688 23.199219 155.582031 22.164062 161.203125 22.164062 L 228.621094 22.164062 C 245.175781 22.164062 257.449219 23.644531 265.425781 26.601562 C 273.402344 29.851562 279.023438 34.582031 282.273438 40.792969 C 285.539062 47.886719 288.046875 57.203125 289.820312 68.734375 L 301.351562 68.734375 L 299.582031 5.753906 L 64.082031 5.753906 L 64.082031 14.625 C 79.742188 14.625 90.246094 17.582031 95.574219 23.496094 C 100.59375 30 103.101562 39.164062 103.101562 50.992188 Z M 103.101562 51.347656 " fill-opacity="1" fill-rule="nonzero"/></g><path stroke-linecap="butt" transform="matrix(0.75, 0.000000000000000125, -0.000000000000000125, 0.75, 59.996645, 298.15372)" fill="none" stroke-linejoin="miter" d="M -0.00073548 3.998165 L 339.915954 3.998165 " stroke="#ffffff" stroke-width="8" stroke-opacity="1" stroke-miterlimit="4"/><g clip-path="url(#2fceee3d8b)"><g clip-path="url(#913a259841)"><path fill="#ffffff" d="M 159.625 21.429688 L 238.757812 21.429688 L 238.757812 91.523438 L 159.625 91.523438 Z M 159.625 21.429688 " fill-opacity="1" fill-rule="nonzero"/></g></g><g fill="#4b0082" fill-opacity="1"><g transform="translate(51.865385, 358.132617)"><g><path d="M 1.953125 -0.359375 C 2.566406 -0.359375 3.09375 -0.578125 3.53125 -1.015625 C 3.96875 -1.453125 4.195312 -1.976562 4.21875 -2.59375 L 4.21875 -22.328125 C 4.164062 -22.941406 3.988281 -23.394531 3.6875 -23.6875 C 3.125 -24.207031 2.546875 -24.46875 1.953125 -24.46875 L 1.484375 -24.46875 L 1.484375 -24.8125 L 15.0625 -24.8125 C 16.226562 -24.8125 17.1875 -24.898438 17.9375 -25.078125 C 18.695312 -25.253906 19.160156 -25.378906 19.328125 -25.453125 L 19.328125 -19.25 L 18.96875 -19.28125 L 18.96875 -19.671875 C 18.96875 -21.140625 18.425781 -22.179688 17.34375 -22.796875 C 16.820312 -23.097656 16.207031 -23.265625 15.5 -23.296875 L 9.53125 -23.296875 L 9.53125 -12.96875 L 14.21875 -12.96875 C 15.09375 -13 15.8125 -13.300781 16.375 -13.875 C 16.945312 -14.457031 17.234375 -15.175781 17.234375 -16.03125 L 17.234375 -16.34375 L 17.578125 -16.34375 L 17.578125 -8.15625 L 17.234375 -8.15625 L 17.234375 -8.4375 C 17.234375 -9.3125 16.953125 -10.03125 16.390625 -10.59375 C 15.835938 -11.164062 15.132812 -11.460938 14.28125 -11.484375 L 9.53125 -11.484375 L 9.53125 -1.53125 L 14.1875 -1.53125 C 15.90625 -1.53125 17.347656 -2.023438 18.515625 -3.015625 C 19.691406 -4.003906 20.5625 -5.410156 21.125 -7.234375 L 21.484375 -7.234375 L 19.859375 0 L 1.484375 0 L 1.484375 -0.359375 Z M 1.953125 -0.359375 "/></g></g></g><g fill="#4b0082" fill-opacity="1"><g transform="translate(74.085539, 358.132617)"><g><path d="M 14.359375 -24.8125 C 18.546875 -24.8125 21.851562 -23.703125 24.28125 -21.484375 C 26.71875 -19.265625 27.9375 -16.238281 27.9375 -12.40625 C 27.9375 -8.582031 26.71875 -5.554688 24.28125 -3.328125 C 21.851562 -1.109375 18.546875 0 14.359375 0 L 1.484375 0 L 1.484375 -0.359375 L 1.953125 -0.359375 C 2.566406 -0.359375 3.09375 -0.578125 3.53125 -1.015625 C 3.96875 -1.453125 4.195312 -1.976562 4.21875 -2.59375 L 4.21875 -22.4375 C 4.21875 -23.007812 3.988281 -23.488281 3.53125 -23.875 C 3.070312 -24.269531 2.546875 -24.46875 1.953125 -24.46875 L 1.484375 -24.46875 L 1.484375 -24.8125 Z M 13.890625 -1.53125 C 15.597656 -1.53125 17.070312 -1.960938 18.3125 -2.828125 C 19.550781 -3.703125 20.5 -4.960938 21.15625 -6.609375 C 21.820312 -8.253906 22.15625 -10.046875 22.15625 -11.984375 C 22.15625 -13.921875 21.957031 -15.566406 21.5625 -16.921875 C 21.175781 -18.285156 20.628906 -19.441406 19.921875 -20.390625 C 18.453125 -22.347656 16.441406 -23.328125 13.890625 -23.328125 L 9.53125 -23.328125 L 9.53125 -1.53125 Z M 13.890625 -1.53125 "/></g></g></g><g fill="#4b0082" fill-opacity="1"><g transform="translate(102.897265, 358.132617)"><g><path d="M 28.015625 -24.46875 L 27.40625 -24.46875 C 26.90625 -24.46875 26.476562 -24.304688 26.125 -23.984375 C 25.769531 -23.660156 25.582031 -23.265625 25.5625 -22.796875 L 25.5625 -8.96875 C 25.5625 -6.0625 24.648438 -3.753906 22.828125 -2.046875 C 21.015625 -0.347656 18.519531 0.5 15.34375 0.5 C 11.613281 0.5 8.753906 -0.332031 6.765625 -2 C 4.785156 -3.664062 3.796875 -5.976562 3.796875 -8.9375 L 3.796875 -22.6875 C 3.773438 -23.394531 3.457031 -23.914062 2.84375 -24.25 C 2.550781 -24.394531 2.242188 -24.46875 1.921875 -24.46875 L 1.34375 -24.46875 L 1.34375 -24.8125 L 11.5625 -24.8125 L 11.5625 -24.46875 L 10.984375 -24.46875 C 10.460938 -24.46875 10.023438 -24.304688 9.671875 -23.984375 C 9.316406 -23.660156 9.128906 -23.253906 9.109375 -22.765625 L 9.109375 -9.21875 C 9.109375 -6.707031 9.722656 -4.71875 10.953125 -3.25 C 12.179688 -1.789062 13.867188 -1.0625 16.015625 -1.0625 C 18.171875 -1.0625 19.875 -1.753906 21.125 -3.140625 C 22.382812 -4.523438 23.023438 -6.394531 23.046875 -8.75 L 23.046875 -22.765625 C 22.992188 -23.441406 22.675781 -23.9375 22.09375 -24.25 C 21.800781 -24.394531 21.492188 -24.46875 21.171875 -24.46875 L 20.59375 -24.46875 L 20.59375 -24.8125 L 28.015625 -24.8125 Z M 28.015625 -24.46875 "/></g></g></g><g fill="#4b0082" fill-opacity="1"><g transform="translate(131.99262, 358.132617)"><g><path d="M 14.5 -23.359375 L 14.5 -2.546875 C 14.519531 -1.929688 14.75 -1.410156 15.1875 -0.984375 C 15.625 -0.566406 16.148438 -0.359375 16.765625 -0.359375 L 17.1875 -0.359375 L 17.234375 0 L 6.453125 0 L 6.453125 -0.359375 L 6.90625 -0.359375 C 7.5 -0.359375 8.015625 -0.566406 8.453125 -0.984375 C 8.890625 -1.410156 9.132812 -1.921875 9.1875 -2.515625 L 9.1875 -23.359375 L 4.390625 -23.359375 C 3.304688 -23.335938 2.441406 -22.992188 1.796875 -22.328125 C 1.160156 -21.671875 0.84375 -20.8125 0.84375 -19.75 L 0.84375 -19.328125 L 0.5 -19.328125 L 0.5 -25.484375 C 1.46875 -25.085938 2.863281 -24.878906 4.6875 -24.859375 L 18.96875 -24.859375 C 19.695312 -24.859375 20.492188 -24.925781 21.359375 -25.0625 C 22.222656 -25.207031 22.820312 -25.347656 23.15625 -25.484375 L 23.15625 -19.328125 L 22.796875 -19.328125 L 22.796875 -19.75 C 22.796875 -21.21875 22.238281 -22.257812 21.125 -22.875 C 20.601562 -23.175781 19.976562 -23.335938 19.25 -23.359375 Z M 14.5 -23.359375 "/></g></g></g><g fill="#4b0082" fill-opacity="1"><g transform="translate(155.594939, 358.132617)"><g><path d="M 11.28125 -23.25 L 9.75 -23.25 C 9.695312 -23.25 9.660156 -23.25 9.640625 -23.25 L 9.640625 -2.59375 C 9.660156 -1.976562 9.890625 -1.453125 10.328125 -1.015625 C 10.765625 -0.578125 11.289062 -0.359375 11.90625 -0.359375 L 12.375 -0.359375 L 12.375 0 L 1.59375 0 L 1.59375 -0.359375 L 2.0625 -0.359375 C 2.90625 -0.359375 3.550781 -0.722656 4 -1.453125 C 4.195312 -1.785156 4.304688 -2.148438 4.328125 -2.546875 L 4.328125 -22.234375 C 4.304688 -22.847656 4.078125 -23.375 3.640625 -23.8125 C 3.203125 -24.25 2.675781 -24.46875 2.0625 -24.46875 L 1.59375 -24.46875 L 1.59375 -24.8125 L 13.75 -24.8125 C 16.039062 -24.8125 17.976562 -24.316406 19.5625 -23.328125 C 20.375 -22.828125 21.015625 -22.132812 21.484375 -21.25 C 21.953125 -20.363281 22.1875 -19.207031 22.1875 -17.78125 C 22.1875 -16.351562 21.691406 -14.976562 20.703125 -13.65625 C 19.710938 -12.332031 18.269531 -11.570312 16.375 -11.375 C 17.75 -10.925781 18.957031 -9.890625 20 -8.265625 C 22.550781 -4.171875 24.441406 -1.734375 25.671875 -0.953125 C 26.285156 -0.578125 27.050781 -0.378906 27.96875 -0.359375 L 27.96875 0 L 24.5 0 C 22.4375 0 20.726562 -0.269531 19.375 -0.8125 C 18.019531 -1.351562 16.953125 -2.3125 16.171875 -3.6875 C 15.722656 -4.46875 14.738281 -6.488281 13.21875 -9.75 C 12.5625 -11.1875 11.757812 -11.976562 10.8125 -12.125 L 10.8125 -12.484375 L 11.90625 -12.484375 C 12.96875 -12.484375 13.90625 -12.800781 14.71875 -13.4375 C 15.539062 -14.070312 16.09375 -15.113281 16.375 -16.5625 C 16.46875 -17.050781 16.515625 -17.4375 16.515625 -17.71875 C 16.515625 -19.664062 16.125 -21.066406 15.34375 -21.921875 C 14.570312 -22.785156 13.570312 -23.226562 12.34375 -23.25 C 12.101562 -23.25 11.75 -23.25 11.28125 -23.25 Z M 11.28125 -23.25 "/></g></g></g><g fill="#4b0082" fill-opacity="1"><g transform="translate(180.579017, 358.132617)"><g><path d="M 28.015625 -24.46875 L 27.40625 -24.46875 C 26.90625 -24.46875 26.476562 -24.304688 26.125 -23.984375 C 25.769531 -23.660156 25.582031 -23.265625 25.5625 -22.796875 L 25.5625 -8.96875 C 25.5625 -6.0625 24.648438 -3.753906 22.828125 -2.046875 C 21.015625 -0.347656 18.519531 0.5 15.34375 0.5 C 11.613281 0.5 8.753906 -0.332031 6.765625 -2 C 4.785156 -3.664062 3.796875 -5.976562 3.796875 -8.9375 L 3.796875 -22.6875 C 3.773438 -23.394531 3.457031 -23.914062 2.84375 -24.25 C 2.550781 -24.394531 2.242188 -24.46875 1.921875 -24.46875 L 1.34375 -24.46875 L 1.34375 -24.8125 L 11.5625 -24.8125 L 11.5625 -24.46875 L 10.984375 -24.46875 C 10.460938 -24.46875 10.023438 -24.304688 9.671875 -23.984375 C 9.316406 -23.660156 9.128906 -23.253906 9.109375 -22.765625 L 9.109375 -9.21875 C 9.109375 -6.707031 9.722656 -4.71875 10.953125 -3.25 C 12.179688 -1.789062 13.867188 -1.0625 16.015625 -1.0625 C 18.171875 -1.0625 19.875 -1.753906 21.125 -3.140625 C 22.382812 -4.523438 23.023438 -6.394531 23.046875 -8.75 L 23.046875 -22.765625 C 22.992188 -23.441406 22.675781 -23.9375 22.09375 -24.25 C 21.800781 -24.394531 21.492188 -24.46875 21.171875 -24.46875 L 20.59375 -24.46875 L 20.59375 -24.8125 L 28.015625 -24.8125 Z M 28.015625 -24.46875 "/></g></g></g><g fill="#4b0082" fill-opacity="1"><g transform="translate(209.674372, 358.132617)"><g><path d="M 1.765625 -3.296875 C 1.765625 -4.992188 2.132812 -6.445312 2.875 -7.65625 L 3.1875 -7.65625 C 3.164062 -7.46875 3.15625 -7.28125 3.15625 -7.09375 C 3.15625 -5.457031 3.738281 -4.03125 4.90625 -2.8125 C 6.082031 -1.601562 7.6875 -1 9.71875 -1 C 11.300781 -1 12.535156 -1.375 13.421875 -2.125 C 14.304688 -2.882812 14.75 -3.84375 14.75 -5 C 14.75 -5.6875 14.53125 -6.300781 14.09375 -6.84375 C 13.65625 -7.382812 12.925781 -7.988281 11.90625 -8.65625 L 5.75 -12.734375 C 3.445312 -14.265625 2.296875 -16.15625 2.296875 -18.40625 C 2.296875 -18.632812 2.320312 -18.867188 2.375 -19.109375 C 2.519531 -20.972656 3.242188 -22.472656 4.546875 -23.609375 C 5.859375 -24.742188 7.617188 -25.3125 9.828125 -25.3125 C 11.117188 -25.3125 12.722656 -25.191406 14.640625 -24.953125 L 16.875 -24.953125 L 16.421875 -19.75 L 16.0625 -19.75 C 16.0625 -20.976562 15.601562 -21.960938 14.6875 -22.703125 C 13.78125 -23.453125 12.570312 -23.828125 11.0625 -23.828125 C 9.21875 -23.828125 7.882812 -23.257812 7.0625 -22.125 C 6.632812 -21.582031 6.421875 -21.035156 6.421875 -20.484375 C 6.421875 -19.941406 6.523438 -19.484375 6.734375 -19.109375 C 7.066406 -18.492188 7.789062 -17.832031 8.90625 -17.125 L 15.671875 -12.734375 C 17.796875 -11.335938 18.859375 -9.515625 18.859375 -7.265625 C 18.859375 -4.765625 18 -2.84375 16.28125 -1.5 C 14.570312 -0.164062 12.300781 0.5 9.46875 0.5 C 7.863281 0.5 6.378906 0.304688 5.015625 -0.078125 C 3.660156 -0.472656 2.660156 -1.003906 2.015625 -1.671875 C 1.847656 -2.117188 1.765625 -2.660156 1.765625 -3.296875 Z M 1.765625 -3.296875 "/></g></g></g><g fill="#4b0082" fill-opacity="1"><g transform="translate(230.158072, 358.132617)"><g><path d="M 14.5 -23.359375 L 14.5 -2.546875 C 14.519531 -1.929688 14.75 -1.410156 15.1875 -0.984375 C 15.625 -0.566406 16.148438 -0.359375 16.765625 -0.359375 L 17.1875 -0.359375 L 17.234375 0 L 6.453125 0 L 6.453125 -0.359375 L 6.90625 -0.359375 C 7.5 -0.359375 8.015625 -0.566406 8.453125 -0.984375 C 8.890625 -1.410156 9.132812 -1.921875 9.1875 -2.515625 L 9.1875 -23.359375 L 4.390625 -23.359375 C 3.304688 -23.335938 2.441406 -22.992188 1.796875 -22.328125 C 1.160156 -21.671875 0.84375 -20.8125 0.84375 -19.75 L 0.84375 -19.328125 L 0.5 -19.328125 L 0.5 -25.484375 C 1.46875 -25.085938 2.863281 -24.878906 4.6875 -24.859375 L 18.96875 -24.859375 C 19.695312 -24.859375 20.492188 -24.925781 21.359375 -25.0625 C 22.222656 -25.207031 22.820312 -25.347656 23.15625 -25.484375 L 23.15625 -19.328125 L 22.796875 -19.328125 L 22.796875 -19.75 C 22.796875 -21.21875 22.238281 -22.257812 21.125 -22.875 C 20.601562 -23.175781 19.976562 -23.335938 19.25 -23.359375 Z M 14.5 -23.359375 "/></g></g></g><g fill="#4b0082" fill-opacity="1"><g transform="translate(253.760391, 358.132617)"><g><path d="M 1.765625 -3.296875 C 1.765625 -4.992188 2.132812 -6.445312 2.875 -7.65625 L 3.1875 -7.65625 C 3.164062 -7.46875 3.15625 -7.28125 3.15625 -7.09375 C 3.15625 -5.457031 3.738281 -4.03125 4.90625 -2.8125 C 6.082031 -1.601562 7.6875 -1 9.71875 -1 C 11.300781 -1 12.535156 -1.375 13.421875 -2.125 C 14.304688 -2.882812 14.75 -3.84375 14.75 -5 C 14.75 -5.6875 14.53125 -6.300781 14.09375 -6.84375 C 13.65625 -7.382812 12.925781 -7.988281 11.90625 -8.65625 L 5.75 -12.734375 C 3.445312 -14.265625 2.296875 -16.15625 2.296875 -18.40625 C 2.296875 -18.632812 2.320312 -18.867188 2.375 -19.109375 C 2.519531 -20.972656 3.242188 -22.472656 4.546875 -23.609375 C 5.859375 -24.742188 7.617188 -25.3125 9.828125 -25.3125 C 11.117188 -25.3125 12.722656 -25.191406 14.640625 -24.953125 L 16.875 -24.953125 L 16.421875 -19.75 L 16.0625 -19.75 C 16.0625 -20.976562 15.601562 -21.960938 14.6875 -22.703125 C 13.78125 -23.453125 12.570312 -23.828125 11.0625 -23.828125 C 9.21875 -23.828125 7.882812 -23.257812 7.0625 -22.125 C 6.632812 -21.582031 6.421875 -21.035156 6.421875 -20.484375 C 6.421875 -19.941406 6.523438 -19.484375 6.734375 -19.109375 C 7.066406 -18.492188 7.789062 -17.832031 8.90625 -17.125 L 15.671875 -12.734375 C 17.796875 -11.335938 18.859375 -9.515625 18.859375 -7.265625 C 18.859375 -4.765625 18 -2.84375 16.28125 -1.5 C 14.570312 -0.164062 12.300781 0.5 9.46875 0.5 C 7.863281 0.5 6.378906 0.304688 5.015625 -0.078125 C 3.660156 -0.472656 2.660156 -1.003906 2.015625 -1.671875 C 1.847656 -2.117188 1.765625 -2.660156 1.765625 -3.296875 Z M 1.765625 -3.296875 "/></g></g></g><g fill="#4b0082" fill-opacity="1"><g transform="translate(274.031413, 358.132617)"><g><path d="M 1.953125 -0.359375 C 2.566406 -0.359375 3.09375 -0.578125 3.53125 -1.015625 C 3.96875 -1.453125 4.195312 -1.976562 4.21875 -2.59375 L 4.21875 -22.265625 C 4.195312 -22.878906 3.96875 -23.398438 3.53125 -23.828125 C 3.09375 -24.253906 2.566406 -24.46875 1.953125 -24.46875 L 1.484375 -24.46875 L 1.484375 -24.8125 L 12.265625 -24.8125 L 12.234375 -24.46875 L 11.8125 -24.46875 C 11.195312 -24.46875 10.660156 -24.253906 10.203125 -23.828125 C 9.753906 -23.398438 9.53125 -22.878906 9.53125 -22.265625 L 9.53125 -2.59375 C 9.53125 -1.976562 9.753906 -1.453125 10.203125 -1.015625 C 10.660156 -0.578125 11.195312 -0.359375 11.8125 -0.359375 L 12.234375 -0.359375 L 12.265625 0 L 1.484375 0 L 1.484375 -0.359375 Z M 1.953125 -0.359375 "/></g></g></g><g fill="#4b0082" fill-opacity="1"><g transform="translate(287.001902, 358.132617)"><g><path d="M 15 0.5 C 10.957031 0.5 7.710938 -0.660156 5.265625 -2.984375 C 2.816406 -5.316406 1.59375 -8.460938 1.59375 -12.421875 C 1.59375 -16.378906 2.816406 -19.515625 5.265625 -21.828125 C 7.710938 -24.148438 11.023438 -25.3125 15.203125 -25.3125 C 17.097656 -25.3125 18.929688 -25.128906 20.703125 -24.765625 C 22.472656 -24.398438 23.90625 -23.945312 25 -23.40625 L 25.0625 -17.296875 L 24.75 -17.296875 C 24.132812 -19.585938 23.082031 -21.25 21.59375 -22.28125 C 20.101562 -23.3125 18.328125 -23.828125 16.265625 -23.828125 C 13.410156 -23.828125 11.210938 -22.800781 9.671875 -20.75 C 8.140625 -18.707031 7.375 -15.90625 7.375 -12.34375 C 7.375 -8.789062 8.078125 -6.007812 9.484375 -4 C 10.890625 -2 12.878906 -1 15.453125 -1 C 17.328125 -1 18.890625 -1.53125 20.140625 -2.59375 C 20.753906 -3.132812 21.203125 -3.769531 21.484375 -4.5 L 21.484375 -9.921875 C 21.484375 -10.441406 21.320312 -10.835938 21 -11.109375 C 20.6875 -11.378906 20.234375 -11.515625 19.640625 -11.515625 L 19.078125 -11.515625 L 19.078125 -11.875 L 29.03125 -11.875 L 29.03125 -11.515625 L 28.5 -11.515625 C 27.9375 -11.515625 27.5 -11.378906 27.1875 -11.109375 C 26.882812 -10.835938 26.734375 -10.441406 26.734375 -9.921875 L 26.734375 -4.078125 C 25.804688 -2.867188 24.28125 -1.800781 22.15625 -0.875 C 20.03125 0.0390625 17.644531 0.5 15 0.5 Z M 15 0.5 "/></g></g></g><g fill="#4b0082" fill-opacity="1"><g transform="translate(315.742653, 358.132617)"><g><path d="M 28.96875 -24.46875 C 28.132812 -24.46875 27.507812 -24.113281 27.09375 -23.40625 C 26.894531 -23.09375 26.785156 -22.734375 26.765625 -22.328125 L 26.765625 -4.046875 C 26.765625 -2.460938 26.875 -1.125 27.09375 -0.03125 L 27.1875 0.5 L 26.875 0.5 L 8.96875 -16.5625 L 8.96875 -2.484375 C 8.96875 -1.890625 9.179688 -1.382812 9.609375 -0.96875 C 10.035156 -0.5625 10.539062 -0.359375 11.125 -0.359375 L 11.8125 -0.359375 L 11.8125 0 L 1.0625 0 L 1.0625 -0.359375 L 1.703125 -0.359375 C 2.316406 -0.359375 2.835938 -0.5625 3.265625 -0.96875 C 3.691406 -1.382812 3.90625 -1.898438 3.90625 -2.515625 L 3.90625 -20.921875 C 3.90625 -22.472656 3.796875 -23.769531 3.578125 -24.8125 L 3.515625 -25.34375 L 3.828125 -25.34375 L 21.734375 -8.296875 L 21.734375 -22.296875 C 21.710938 -22.910156 21.488281 -23.425781 21.0625 -23.84375 C 20.632812 -24.257812 20.125 -24.46875 19.53125 -24.46875 L 18.890625 -24.46875 L 18.890625 -24.8125 L 29.640625 -24.8125 L 29.640625 -24.46875 Z M 28.96875 -24.46875 "/></g></g></g></svg>