<svg xmlns="http://www.w3.org/2000/svg" xmlns:xlink="http://www.w3.org/1999/xlink" width="500" zoomAndPan="magnify" viewBox="0 0 375 374.999991" height="500" preserveAspectRatio="xMidYMid meet" version="1.0"><defs><g/><clipPath id="8a058162ea"><path d="M 42.449219 21.570312 L 221.699219 21.570312 L 221.699219 291.570312 L 42.449219 291.570312 Z M 42.449219 21.570312 " clip-rule="nonzero"/></clipPath><clipPath id="041c330d4e"><path d="M 74 21.570312 L 312.449219 21.570312 L 312.449219 290 L 74 290 Z M 74 21.570312 " clip-rule="nonzero"/></clipPath><clipPath id="4235d35ea9"><path d="M 162.070312 35.980469 L 234.265625 35.980469 L 234.265625 99.933594 L 162.070312 99.933594 Z M 162.070312 35.980469 " clip-rule="nonzero"/></clipPath><clipPath id="12a51870f4"><path d="M 168.070312 35.980469 L 228.207031 35.980469 C 229.796875 35.980469 231.324219 36.609375 232.449219 37.734375 C 233.574219 38.863281 234.207031 40.386719 234.207031 41.980469 L 234.207031 93.933594 C 234.207031 95.523438 233.574219 97.050781 232.449219 98.175781 C 231.324219 99.300781 229.796875 99.933594 228.207031 99.933594 L 168.070312 99.933594 C 166.476562 99.933594 164.949219 99.300781 163.824219 98.175781 C 162.699219 97.050781 162.070312 95.523438 162.070312 93.933594 L 162.070312 41.980469 C 162.070312 40.386719 162.699219 38.863281 163.824219 37.734375 C 164.949219 36.609375 166.476562 35.980469 168.070312 35.980469 Z M 168.070312 35.980469 " clip-rule="nonzero"/></clipPath></defs><rect x="-37.5" width="450" fill="#ffffff" y="-37.499999" height="449.999989" fill-opacity="1"/><rect x="-37.5" width="450" fill="#4b0082" y="-37.499999" height="449.999989" fill-opacity="1"/><g clip-path="url(#8a058162ea)"><path fill="#ffffff" d="M 171.78125 149.414062 C 132.617188 131.894531 83.667969 123.136719 83.667969 75.21875 C 83.667969 46.875 103.246094 22.660156 140.34375 22.660156 C 179.507812 22.660156 199.082031 46.363281 209.390625 81.398438 C 210.933594 86.039062 212.488281 92.21875 212.488281 95.828125 L 212.488281 98.402344 L 215.0625 98.402344 L 215.0625 21.628906 L 212.488281 21.628906 L 212.488281 24.722656 C 212.488281 27.820312 209.390625 31.9375 206.304688 34 C 204.761719 34.511719 203.210938 35.03125 201.15625 35.03125 C 183.121094 35.023438 171.78125 21.628906 140.351562 21.628906 C 90.882812 21.628906 59.453125 49.449219 59.453125 92.738281 C 59.453125 124.6875 77.484375 140.660156 100.667969 152.511719 C 67.1875 158.691406 42.449219 179.300781 42.449219 215.367188 C 42.449219 263.289062 85.730469 291.109375 130.042969 291.109375 C 140.863281 291.109375 151.683594 289.046875 160.960938 285.441406 C 163.535156 284.929688 165.597656 283.894531 167.664062 282.863281 C 171.78125 281.320312 175.90625 279.769531 178.484375 278.226562 C 204.25 266.894531 221.761719 242.671875 221.761719 212.785156 C 221.761719 178.269531 200.632812 162.300781 171.78125 149.414062 Z M 130.042969 289.566406 C 88.304688 289.566406 45.027344 260.191406 45.027344 215.367188 C 45.027344 179.300781 71.304688 159.714844 104.277344 154.566406 C 144.46875 173.632812 197.539062 180.84375 197.539062 230.828125 C 197.546875 268.4375 164.566406 289.566406 130.042969 289.566406 Z M 134.480469 155.75 C 127.316406 152.984375 119.949219 150.136719 113.035156 147.058594 L 105.445312 143.179688 C 80.222656 130.285156 69.929688 115.667969 69.929688 92.730469 C 69.929688 85 71.082031 77.871094 73.296875 71.433594 C 73.230469 72.691406 73.191406 73.945312 73.191406 75.21875 C 73.191406 96.332031 81.285156 112.957031 97.941406 126.039062 C 111.632812 136.789062 129.363281 143.714844 146.511719 150.40625 C 153.523438 153.140625 160.777344 155.972656 167.511719 158.988281 C 194.53125 171.054688 211.285156 184.257812 211.285156 212.800781 C 211.285156 219.894531 210.152344 226.667969 207.992188 232.960938 C 208.015625 232.257812 208.023438 231.546875 208.023438 230.835938 C 208.023438 184.164062 168.949219 169.066406 134.480469 155.75 Z M 134.480469 155.75 " fill-opacity="1" fill-rule="nonzero"/></g><path fill="#ffffff" d="M 104.574219 96.554688 C 104.828125 95.824219 105.136719 95.0625 105.183594 94.882812 C 105.914062 92.0625 106.21875 89.101562 106.132812 86.191406 C 105.90625 78.222656 103.191406 71.203125 98.929688 64.488281 C 97.648438 62.460938 96.28125 60.488281 94.949219 58.492188 C 94.792969 58.253906 94.023438 56.75 93.648438 56.789062 C 93.371094 56.820312 93.585938 59.164062 93.59375 59.351562 C 93.726562 62.308594 93.773438 65.285156 93.6875 68.238281 C 93.445312 76.460938 93.464844 84.917969 96.566406 92.71875 C 97.621094 95.367188 99.398438 98.875 102.355469 100.015625 C 106.5625 114.390625 115.371094 126.558594 122.28125 139.765625 C 121.425781 138.644531 120.542969 137.546875 119.625 136.480469 C 111.523438 127.03125 101.359375 120.601562 89.453125 116.984375 C 86.878906 116.199219 84.292969 115.484375 81.679688 114.839844 C 81.378906 114.765625 79.488281 114.085938 79.285156 114.417969 C 78.988281 114.902344 80.800781 117.113281 81.054688 117.496094 C 83.226562 120.761719 85.511719 123.949219 87.691406 127.207031 C 94.691406 137.664062 105.222656 144.738281 116.792969 149.417969 C 119.691406 150.59375 124.535156 152.957031 128.027344 152.613281 C 132.585938 165.195312 134.191406 178.277344 133.625 191.53125 C 133.25 189.78125 132.832031 188.039062 132.386719 186.308594 C 130.507812 179.015625 127.707031 169.488281 121.890625 163.875 C 122.207031 163.441406 122.445312 162.945312 122.59375 162.398438 C 123.246094 159.953125 121.765625 157.433594 119.289062 156.769531 C 116.8125 156.105469 114.269531 157.550781 113.613281 159.992188 C 112.960938 162.433594 114.4375 164.957031 116.917969 165.621094 C 117.742188 165.839844 118.574219 165.828125 119.34375 165.621094 C 125.09375 170.757812 127.632812 180.042969 129.429688 187.03125 C 129.671875 187.96875 129.90625 188.910156 130.128906 189.855469 C 126.628906 180.976562 121.464844 172.464844 114.242188 166.085938 C 113.253906 165.21875 107.78125 159.789062 106.050781 160.625 C 105.601562 160.839844 106.613281 163.207031 106.714844 163.546875 C 107.660156 166.730469 108.265625 170.027344 108.816406 173.292969 C 110.726562 184.585938 115.125 193.722656 123.609375 201.859375 C 126.058594 204.207031 129.527344 205.460938 131.972656 207.6875 C 131.035156 214.21875 129.941406 220.722656 128.972656 227.242188 C 128.542969 226.394531 128.105469 225.546875 127.660156 224.703125 C 125.003906 219.644531 121.761719 215.003906 117.613281 211.027344 C 117.511719 210.933594 117.40625 210.851562 117.289062 210.789062 C 117.339844 210.648438 117.386719 210.503906 117.429688 210.351562 C 118.082031 207.910156 116.601562 205.390625 114.125 204.726562 C 111.648438 204.0625 109.101562 205.503906 108.449219 207.945312 C 107.792969 210.390625 109.273438 212.914062 111.753906 213.578125 C 113.035156 213.921875 114.339844 213.699219 115.386719 213.066406 C 115.417969 213.105469 115.457031 213.144531 115.496094 213.183594 C 119.40625 216.929688 122.453125 221.308594 124.957031 226.078125 C 125.828125 227.738281 126.679688 229.414062 127.503906 231.101562 C 127.625 231.355469 127.636719 231.773438 127.699219 232.144531 C 127.785156 232.660156 127.90625 233.132812 128.066406 233.457031 L 128.089844 233.5 C 127.269531 239.75 126.644531 246.023438 126.46875 252.367188 C 126.359375 256.339844 126.515625 260.324219 126.671875 264.296875 C 126.699219 265.007812 126.539062 266.472656 126.714844 267.582031 C 126.84375 268.382812 127.144531 269.046875 127.566406 269.476562 C 128.148438 270.078125 129.113281 270.097656 129.71875 269.527344 C 130.304688 268.972656 130.339844 268.058594 129.8125 267.457031 C 129.792969 267.363281 129.679688 266.761719 129.671875 266.386719 C 129.65625 265.550781 129.738281 264.691406 129.71875 264.203125 C 129.566406 260.296875 129.410156 256.378906 129.519531 252.472656 C 129.671875 246.875 130.179688 241.332031 130.867188 235.8125 C 131.589844 235.003906 132.414062 234.179688 132.484375 234.109375 C 135.96875 230.726562 140.230469 227.921875 144.433594 225.503906 C 154.308594 219.820312 160.785156 212.757812 162.644531 201.296875 C 162.929688 199.550781 164.40625 193.046875 162.914062 191.445312 C 162.8125 191.335938 160.917969 193.398438 160.777344 193.535156 C 158.3125 195.933594 155.886719 198.359375 153.515625 200.855469 C 148.089844 206.558594 142.996094 212.429688 137.929688 218.441406 C 135.894531 220.855469 133.914062 223.042969 132.316406 225.484375 C 133.480469 217.871094 134.773438 210.269531 135.738281 202.609375 C 136.792969 194.253906 137.085938 185.925781 136.449219 177.710938 C 137.292969 177.382812 138.804688 177.03125 139.339844 176.761719 C 141.890625 175.464844 144.257812 173.859375 146.464844 172.0625 C 155.835938 164.425781 161.40625 153.007812 163.28125 141.257812 C 163.890625 137.429688 164.328125 133.535156 164.355469 129.652344 C 164.359375 129.125 164.582031 126.546875 163.769531 126.296875 C 163.367188 126.171875 162.210938 128.9375 162.054688 129.21875 C 160.3125 132.332031 158.011719 135.039062 155.894531 137.894531 C 149.230469 146.863281 142.523438 156.316406 138.054688 166.664062 C 138.199219 164.644531 138.359375 162.628906 138.566406 160.617188 C 139.503906 151.460938 140.820312 142.648438 144.996094 134.375 C 145.011719 134.351562 145.023438 134.324219 145.035156 134.296875 C 147.316406 134.613281 149.527344 133.207031 150.128906 130.957031 C 150.785156 128.515625 149.304688 125.992188 146.824219 125.328125 C 144.347656 124.664062 141.804688 126.109375 141.148438 128.550781 C 140.71875 130.160156 141.214844 131.804688 142.3125 132.929688 C 142.296875 132.957031 142.28125 132.988281 142.265625 133.015625 C 137.921875 141.617188 136.507812 150.773438 135.53125 160.292969 C 135.3125 162.414062 135.148438 164.542969 134.996094 166.671875 C 133.664062 159.558594 131.546875 152.554688 128.527344 145.710938 C 126.167969 140.351562 123.320312 135.246094 120.398438 130.1875 C 120.378906 129.800781 120.238281 128.867188 120.300781 128.46875 C 120.496094 127.164062 120.769531 125.859375 121.132812 124.589844 C 122.167969 120.976562 123.730469 117.535156 125.308594 114.128906 C 130.46875 102.976562 133.820312 93.039062 132.617188 80.472656 C 132.347656 77.636719 131.941406 74.78125 131.167969 72.03125 C 131.074219 71.699219 130.660156 69.535156 130.214844 69.417969 C 130.023438 69.367188 128.800781 72.605469 128.703125 72.8125 C 127.035156 76.429688 125.125 79.945312 123.273438 83.472656 C 119.003906 91.605469 118.089844 100.070312 117.28125 109.085938 C 117.054688 111.632812 116.816406 114 116.667969 116.285156 C 116.089844 114.027344 115.582031 111.75 115.195312 109.453125 C 113.578125 99.921875 112.964844 90.3125 114.363281 80.757812 C 116.105469 80.480469 117.597656 79.226562 118.078125 77.433594 C 118.734375 74.992188 117.253906 72.472656 114.773438 71.808594 C 112.296875 71.140625 109.753906 72.585938 109.097656 75.027344 C 108.542969 77.105469 109.527344 79.234375 111.355469 80.238281 C 109.902344 90.125 110.515625 100.066406 112.1875 109.929688 C 112.761719 113.3125 113.578125 116.644531 114.496094 119.953125 C 110.347656 112.539062 106.621094 104.949219 104.574219 96.554688 Z M 132.417969 196.609375 L 132.421875 196.613281 C 132.441406 196.601562 132.46875 196.585938 132.492188 196.574219 C 132.46875 196.585938 132.445312 196.597656 132.417969 196.609375 Z M 132.417969 196.609375 " fill-opacity="1" fill-rule="evenodd"/><g clip-path="url(#041c330d4e)"><path fill="#ffffff" d="M 151.367188 241.164062 L 110.496094 241.164062 L 110.496094 247.875 C 110.496094 257.316406 109.289062 264.464844 106.855469 269.320312 C 104.425781 274.175781 100.648438 277.414062 95.53125 279.03125 C 94.984375 279.03125 93.777344 279.300781 91.878906 279.84375 C 89.460938 280.113281 87.4375 280.382812 85.808594 280.652344 C 80.960938 281.191406 77.324219 281.460938 74.890625 281.460938 L 74.890625 289.554688 L 293.808594 289.554688 L 312.019531 220.761719 L 299.878906 220.761719 C 292.585938 238.296875 283.820312 250.976562 273.578125 258.800781 C 263.320312 266.894531 251.039062 271.613281 236.75 272.960938 C 230.273438 274.042969 220.972656 274.582031 208.832031 274.582031 L 185.355469 274.582031 L 163.507812 272.960938 C 158.925781 272.421875 155.820312 271.210938 154.207031 269.320312 C 152.308594 267.433594 151.367188 264.464844 151.367188 260.417969 Z M 167.457031 140.238281 L 162.046875 156.828125 L 209.226562 156.828125 C 213.273438 156.828125 217.054688 156.964844 220.566406 157.234375 L 221.773438 157.234375 C 227.71875 157.773438 232.4375 158.449219 235.9375 159.257812 C 241.878906 160.605469 246.054688 162.492188 248.484375 164.921875 C 251.179688 168.160156 253.0625 171.53125 254.144531 175.039062 L 258.191406 196.484375 L 267.507812 196.484375 L 267.507812 102.203125 L 258.191406 102.203125 C 256.308594 113.800781 254.019531 122.164062 251.320312 127.289062 C 248.890625 131.875 244.84375 135.246094 239.183594 137.40625 C 233.507812 139.292969 223.796875 140.238281 210.042969 140.238281 Z M 110.496094 63.273438 L 151.367188 63.273438 L 151.367188 48.382812 C 151.902344 44.335938 152.859375 41.367188 154.207031 39.480469 C 155.273438 37.59375 158.378906 36.648438 163.507812 36.648438 L 225.019531 36.648438 C 240.125 36.648438 251.320312 37.996094 258.601562 40.695312 C 265.878906 43.664062 271.007812 47.976562 273.972656 53.644531 C 276.949219 60.117188 279.238281 68.617188 280.855469 79.136719 L 291.378906 79.136719 L 289.761719 21.675781 L 74.890625 21.675781 L 74.890625 29.769531 C 89.179688 29.769531 98.765625 32.46875 103.625 37.863281 C 108.207031 43.796875 110.496094 52.160156 110.496094 62.949219 Z M 110.496094 63.273438 " fill-opacity="1" fill-rule="nonzero"/></g><path stroke-linecap="butt" transform="matrix(0.75, 0, 0, 0.75, 71.165933, 288.572676)" fill="none" stroke-linejoin="miter" d="M -0.0024935 3.502057 L 310.138152 3.502057 " stroke="#4b0082" stroke-width="7" stroke-opacity="1" stroke-miterlimit="4"/><g clip-path="url(#4235d35ea9)"><g clip-path="url(#12a51870f4)"><path fill="#4b0082" d="M 162.070312 35.980469 L 234.265625 35.980469 L 234.265625 99.933594 L 162.070312 99.933594 Z M 162.070312 35.980469 " fill-opacity="1" fill-rule="nonzero"/></g></g><g fill="#ffffff" fill-opacity="1"><g transform="translate(63.746969, 343.18518)"><g><path d="M 1.78125 -0.328125 C 2.34375 -0.328125 2.820312 -0.523438 3.21875 -0.921875 C 3.613281 -1.316406 3.820312 -1.796875 3.84375 -2.359375 L 3.84375 -20.375 C 3.800781 -20.9375 3.640625 -21.347656 3.359375 -21.609375 C 2.847656 -22.078125 2.320312 -22.3125 1.78125 -22.3125 L 1.359375 -22.3125 L 1.359375 -22.640625 L 13.75 -22.640625 C 14.800781 -22.640625 15.671875 -22.71875 16.359375 -22.875 C 17.054688 -23.039062 17.476562 -23.15625 17.625 -23.21875 L 17.625 -17.5625 L 17.296875 -17.59375 L 17.296875 -17.953125 C 17.296875 -19.285156 16.800781 -20.234375 15.8125 -20.796875 C 15.34375 -21.078125 14.785156 -21.226562 14.140625 -21.25 L 8.703125 -21.25 L 8.703125 -11.84375 L 12.96875 -11.84375 C 13.769531 -11.863281 14.425781 -12.132812 14.9375 -12.65625 C 15.457031 -13.1875 15.71875 -13.84375 15.71875 -14.625 L 15.71875 -14.90625 L 16.046875 -14.90625 L 16.046875 -7.4375 L 15.71875 -7.4375 L 15.71875 -7.703125 C 15.71875 -8.492188 15.460938 -9.148438 14.953125 -9.671875 C 14.453125 -10.191406 13.8125 -10.460938 13.03125 -10.484375 L 8.703125 -10.484375 L 8.703125 -1.390625 L 12.9375 -1.390625 C 14.507812 -1.390625 15.828125 -1.84375 16.890625 -2.75 C 17.960938 -3.65625 18.757812 -4.9375 19.28125 -6.59375 L 19.59375 -6.59375 L 18.109375 0 L 1.359375 0 L 1.359375 -0.328125 Z M 1.78125 -0.328125 "/></g></g></g><g fill="#ffffff" fill-opacity="1"><g transform="translate(84.020638, 343.18518)"><g><path d="M 13.09375 -22.640625 C 16.914062 -22.640625 19.9375 -21.625 22.15625 -19.59375 C 24.375 -17.570312 25.484375 -14.8125 25.484375 -11.3125 C 25.484375 -7.820312 24.375 -5.0625 22.15625 -3.03125 C 19.9375 -1.007812 16.914062 0 13.09375 0 L 1.359375 0 L 1.359375 -0.328125 L 1.78125 -0.328125 C 2.34375 -0.328125 2.820312 -0.523438 3.21875 -0.921875 C 3.613281 -1.316406 3.820312 -1.796875 3.84375 -2.359375 L 3.84375 -20.46875 C 3.84375 -20.988281 3.632812 -21.425781 3.21875 -21.78125 C 2.800781 -22.132812 2.320312 -22.3125 1.78125 -22.3125 L 1.359375 -22.3125 L 1.359375 -22.640625 Z M 12.671875 -1.390625 C 14.222656 -1.390625 15.566406 -1.785156 16.703125 -2.578125 C 17.835938 -3.378906 18.707031 -4.53125 19.3125 -6.03125 C 19.914062 -7.53125 20.21875 -9.160156 20.21875 -10.921875 C 20.21875 -12.691406 20.035156 -14.195312 19.671875 -15.4375 C 19.316406 -16.675781 18.816406 -17.726562 18.171875 -18.59375 C 16.835938 -20.382812 15.003906 -21.28125 12.671875 -21.28125 L 8.703125 -21.28125 L 8.703125 -1.390625 Z M 12.671875 -1.390625 "/></g></g></g><g fill="#ffffff" fill-opacity="1"><g transform="translate(110.308457, 343.18518)"><g><path d="M 25.546875 -22.3125 L 25 -22.3125 C 24.550781 -22.3125 24.164062 -22.164062 23.84375 -21.875 C 23.519531 -21.582031 23.34375 -21.222656 23.3125 -20.796875 L 23.3125 -8.1875 C 23.3125 -5.53125 22.484375 -3.425781 20.828125 -1.875 C 19.171875 -0.320312 16.894531 0.453125 14 0.453125 C 10.59375 0.453125 7.984375 -0.304688 6.171875 -1.828125 C 4.359375 -3.347656 3.453125 -5.457031 3.453125 -8.15625 L 3.453125 -20.703125 C 3.429688 -21.347656 3.144531 -21.820312 2.59375 -22.125 C 2.332031 -22.25 2.050781 -22.3125 1.75 -22.3125 L 1.234375 -22.3125 L 1.234375 -22.640625 L 10.546875 -22.640625 L 10.546875 -22.3125 L 10.03125 -22.3125 C 9.550781 -22.3125 9.148438 -22.164062 8.828125 -21.875 C 8.503906 -21.582031 8.332031 -21.210938 8.3125 -20.765625 L 8.3125 -8.40625 C 8.3125 -6.125 8.867188 -4.3125 9.984375 -2.96875 C 11.109375 -1.632812 12.648438 -0.96875 14.609375 -0.96875 C 16.578125 -0.96875 18.128906 -1.597656 19.265625 -2.859375 C 20.410156 -4.117188 21 -5.828125 21.03125 -7.984375 L 21.03125 -20.765625 C 20.976562 -21.390625 20.6875 -21.84375 20.15625 -22.125 C 19.894531 -22.25 19.613281 -22.3125 19.3125 -22.3125 L 18.796875 -22.3125 L 18.796875 -22.640625 L 25.546875 -22.640625 Z M 25.546875 -22.3125 "/></g></g></g><g fill="#ffffff" fill-opacity="1"><g transform="translate(136.85506, 343.18518)"><g><path d="M 13.234375 -21.3125 L 13.234375 -2.328125 C 13.253906 -1.765625 13.460938 -1.289062 13.859375 -0.90625 C 14.253906 -0.519531 14.734375 -0.328125 15.296875 -0.328125 L 15.6875 -0.328125 L 15.71875 0 L 5.890625 0 L 5.890625 -0.328125 L 6.3125 -0.328125 C 6.84375 -0.328125 7.304688 -0.519531 7.703125 -0.90625 C 8.109375 -1.289062 8.332031 -1.753906 8.375 -2.296875 L 8.375 -21.3125 L 4.015625 -21.3125 C 3.015625 -21.289062 2.222656 -20.976562 1.640625 -20.375 C 1.066406 -19.769531 0.78125 -18.984375 0.78125 -18.015625 L 0.78125 -17.625 L 0.453125 -17.625 L 0.453125 -23.25 C 1.335938 -22.882812 2.609375 -22.691406 4.265625 -22.671875 L 17.296875 -22.671875 C 17.972656 -22.671875 18.703125 -22.734375 19.484375 -22.859375 C 20.273438 -22.992188 20.820312 -23.125 21.125 -23.25 L 21.125 -17.625 L 20.796875 -17.625 L 20.796875 -18.015625 C 20.796875 -19.347656 20.289062 -20.296875 19.28125 -20.859375 C 18.800781 -21.140625 18.226562 -21.289062 17.5625 -21.3125 Z M 13.234375 -21.3125 "/></g></g></g><g fill="#ffffff" fill-opacity="1"><g transform="translate(158.389816, 343.18518)"><g><path d="M 10.28125 -21.21875 L 8.890625 -21.21875 C 8.847656 -21.21875 8.816406 -21.21875 8.796875 -21.21875 L 8.796875 -2.359375 C 8.816406 -1.796875 9.023438 -1.316406 9.421875 -0.921875 C 9.828125 -0.523438 10.3125 -0.328125 10.875 -0.328125 L 11.28125 -0.328125 L 11.28125 0 L 1.453125 0 L 1.453125 -0.328125 L 1.875 -0.328125 C 2.65625 -0.328125 3.25 -0.660156 3.65625 -1.328125 C 3.820312 -1.628906 3.921875 -1.960938 3.953125 -2.328125 L 3.953125 -20.28125 C 3.921875 -20.84375 3.707031 -21.320312 3.3125 -21.71875 C 2.914062 -22.113281 2.4375 -22.3125 1.875 -22.3125 L 1.453125 -22.3125 L 1.453125 -22.640625 L 12.546875 -22.640625 C 14.640625 -22.640625 16.410156 -22.1875 17.859375 -21.28125 C 18.585938 -20.832031 19.164062 -20.203125 19.59375 -19.390625 C 20.03125 -18.578125 20.25 -17.519531 20.25 -16.21875 C 20.25 -14.914062 19.796875 -13.660156 18.890625 -12.453125 C 17.984375 -11.242188 16.664062 -10.550781 14.9375 -10.375 C 16.1875 -9.96875 17.285156 -9.019531 18.234375 -7.53125 C 20.566406 -3.800781 22.296875 -1.582031 23.421875 -0.875 C 23.984375 -0.53125 24.679688 -0.347656 25.515625 -0.328125 L 25.515625 0 L 22.34375 0 C 20.46875 0 18.910156 -0.242188 17.671875 -0.734375 C 16.429688 -1.234375 15.457031 -2.109375 14.75 -3.359375 C 14.34375 -4.078125 13.445312 -5.921875 12.0625 -8.890625 C 11.457031 -10.210938 10.722656 -10.9375 9.859375 -11.0625 L 9.859375 -11.390625 L 10.875 -11.390625 C 11.84375 -11.390625 12.695312 -11.675781 13.4375 -12.25 C 14.1875 -12.832031 14.6875 -13.785156 14.9375 -15.109375 C 15.03125 -15.554688 15.078125 -15.910156 15.078125 -16.171875 C 15.078125 -17.941406 14.71875 -19.21875 14 -20 C 13.289062 -20.789062 12.375 -21.195312 11.25 -21.21875 C 11.039062 -21.21875 10.71875 -21.21875 10.28125 -21.21875 Z M 10.28125 -21.21875 "/></g></g></g><g fill="#ffffff" fill-opacity="1"><g transform="translate(181.185289, 343.18518)"><g><path d="M 25.546875 -22.3125 L 25 -22.3125 C 24.550781 -22.3125 24.164062 -22.164062 23.84375 -21.875 C 23.519531 -21.582031 23.34375 -21.222656 23.3125 -20.796875 L 23.3125 -8.1875 C 23.3125 -5.53125 22.484375 -3.425781 20.828125 -1.875 C 19.171875 -0.320312 16.894531 0.453125 14 0.453125 C 10.59375 0.453125 7.984375 -0.304688 6.171875 -1.828125 C 4.359375 -3.347656 3.453125 -5.457031 3.453125 -8.15625 L 3.453125 -20.703125 C 3.429688 -21.347656 3.144531 -21.820312 2.59375 -22.125 C 2.332031 -22.25 2.050781 -22.3125 1.75 -22.3125 L 1.234375 -22.3125 L 1.234375 -22.640625 L 10.546875 -22.640625 L 10.546875 -22.3125 L 10.03125 -22.3125 C 9.550781 -22.3125 9.148438 -22.164062 8.828125 -21.875 C 8.503906 -21.582031 8.332031 -21.210938 8.3125 -20.765625 L 8.3125 -8.40625 C 8.3125 -6.125 8.867188 -4.3125 9.984375 -2.96875 C 11.109375 -1.632812 12.648438 -0.96875 14.609375 -0.96875 C 16.578125 -0.96875 18.128906 -1.597656 19.265625 -2.859375 C 20.410156 -4.117188 21 -5.828125 21.03125 -7.984375 L 21.03125 -20.765625 C 20.976562 -21.390625 20.6875 -21.84375 20.15625 -22.125 C 19.894531 -22.25 19.613281 -22.3125 19.3125 -22.3125 L 18.796875 -22.3125 L 18.796875 -22.640625 L 25.546875 -22.640625 Z M 25.546875 -22.3125 "/></g></g></g><g fill="#ffffff" fill-opacity="1"><g transform="translate(207.731891, 343.18518)"><g><path d="M 1.625 -3.015625 C 1.625 -4.566406 1.957031 -5.890625 2.625 -6.984375 L 2.90625 -6.984375 C 2.882812 -6.816406 2.875 -6.644531 2.875 -6.46875 C 2.875 -4.976562 3.40625 -3.675781 4.46875 -2.5625 C 5.539062 -1.457031 7.003906 -0.90625 8.859375 -0.90625 C 10.304688 -0.90625 11.429688 -1.25 12.234375 -1.9375 C 13.046875 -2.625 13.453125 -3.5 13.453125 -4.5625 C 13.453125 -5.1875 13.253906 -5.742188 12.859375 -6.234375 C 12.460938 -6.734375 11.800781 -7.285156 10.875 -7.890625 L 5.234375 -11.609375 C 3.148438 -13.015625 2.109375 -14.738281 2.109375 -16.78125 C 2.109375 -17 2.128906 -17.21875 2.171875 -17.4375 C 2.296875 -19.132812 2.957031 -20.5 4.15625 -21.53125 C 5.351562 -22.570312 6.953125 -23.09375 8.953125 -23.09375 C 10.140625 -23.09375 11.609375 -22.984375 13.359375 -22.765625 L 15.390625 -22.765625 L 14.96875 -18.015625 L 14.65625 -18.015625 C 14.65625 -19.140625 14.238281 -20.039062 13.40625 -20.71875 C 12.570312 -21.394531 11.46875 -21.734375 10.09375 -21.734375 C 8.40625 -21.734375 7.1875 -21.21875 6.4375 -20.1875 C 6.050781 -19.6875 5.859375 -19.1875 5.859375 -18.6875 C 5.859375 -18.195312 5.953125 -17.78125 6.140625 -17.4375 C 6.441406 -16.875 7.101562 -16.269531 8.125 -15.625 L 14.296875 -11.609375 C 16.234375 -10.335938 17.203125 -8.675781 17.203125 -6.625 C 17.203125 -4.34375 16.421875 -2.59375 14.859375 -1.375 C 13.296875 -0.15625 11.222656 0.453125 8.640625 0.453125 C 7.171875 0.453125 5.816406 0.273438 4.578125 -0.078125 C 3.335938 -0.429688 2.425781 -0.910156 1.84375 -1.515625 C 1.695312 -1.929688 1.625 -2.429688 1.625 -3.015625 Z M 1.625 -3.015625 "/></g></g></g><g fill="#ffffff" fill-opacity="1"><g transform="translate(226.421219, 343.18518)"><g><path d="M 13.234375 -21.3125 L 13.234375 -2.328125 C 13.253906 -1.765625 13.460938 -1.289062 13.859375 -0.90625 C 14.253906 -0.519531 14.734375 -0.328125 15.296875 -0.328125 L 15.6875 -0.328125 L 15.71875 0 L 5.890625 0 L 5.890625 -0.328125 L 6.3125 -0.328125 C 6.84375 -0.328125 7.304688 -0.519531 7.703125 -0.90625 C 8.109375 -1.289062 8.332031 -1.753906 8.375 -2.296875 L 8.375 -21.3125 L 4.015625 -21.3125 C 3.015625 -21.289062 2.222656 -20.976562 1.640625 -20.375 C 1.066406 -19.769531 0.78125 -18.984375 0.78125 -18.015625 L 0.78125 -17.625 L 0.453125 -17.625 L 0.453125 -23.25 C 1.335938 -22.882812 2.609375 -22.691406 4.265625 -22.671875 L 17.296875 -22.671875 C 17.972656 -22.671875 18.703125 -22.734375 19.484375 -22.859375 C 20.273438 -22.992188 20.820312 -23.125 21.125 -23.25 L 21.125 -17.625 L 20.796875 -17.625 L 20.796875 -18.015625 C 20.796875 -19.347656 20.289062 -20.296875 19.28125 -20.859375 C 18.800781 -21.140625 18.226562 -21.289062 17.5625 -21.3125 Z M 13.234375 -21.3125 "/></g></g></g><g fill="#ffffff" fill-opacity="1"><g transform="translate(247.955975, 343.18518)"><g><path d="M 1.625 -3.015625 C 1.625 -4.566406 1.957031 -5.890625 2.625 -6.984375 L 2.90625 -6.984375 C 2.882812 -6.816406 2.875 -6.644531 2.875 -6.46875 C 2.875 -4.976562 3.40625 -3.675781 4.46875 -2.5625 C 5.539062 -1.457031 7.003906 -0.90625 8.859375 -0.90625 C 10.304688 -0.90625 11.429688 -1.25 12.234375 -1.9375 C 13.046875 -2.625 13.453125 -3.5 13.453125 -4.5625 C 13.453125 -5.1875 13.253906 -5.742188 12.859375 -6.234375 C 12.460938 -6.734375 11.800781 -7.285156 10.875 -7.890625 L 5.234375 -11.609375 C 3.148438 -13.015625 2.109375 -14.738281 2.109375 -16.78125 C 2.109375 -17 2.128906 -17.21875 2.171875 -17.4375 C 2.296875 -19.132812 2.957031 -20.5 4.15625 -21.53125 C 5.351562 -22.570312 6.953125 -23.09375 8.953125 -23.09375 C 10.140625 -23.09375 11.609375 -22.984375 13.359375 -22.765625 L 15.390625 -22.765625 L 14.96875 -18.015625 L 14.65625 -18.015625 C 14.65625 -19.140625 14.238281 -20.039062 13.40625 -20.71875 C 12.570312 -21.394531 11.46875 -21.734375 10.09375 -21.734375 C 8.40625 -21.734375 7.1875 -21.21875 6.4375 -20.1875 C 6.050781 -19.6875 5.859375 -19.1875 5.859375 -18.6875 C 5.859375 -18.195312 5.953125 -17.78125 6.140625 -17.4375 C 6.441406 -16.875 7.101562 -16.269531 8.125 -15.625 L 14.296875 -11.609375 C 16.234375 -10.335938 17.203125 -8.675781 17.203125 -6.625 C 17.203125 -4.34375 16.421875 -2.59375 14.859375 -1.375 C 13.296875 -0.15625 11.222656 0.453125 8.640625 0.453125 C 7.171875 0.453125 5.816406 0.273438 4.578125 -0.078125 C 3.335938 -0.429688 2.425781 -0.910156 1.84375 -1.515625 C 1.695312 -1.929688 1.625 -2.429688 1.625 -3.015625 Z M 1.625 -3.015625 "/></g></g></g><g fill="#ffffff" fill-opacity="1"><g transform="translate(266.451257, 343.18518)"><g><path d="M 1.78125 -0.328125 C 2.34375 -0.328125 2.820312 -0.523438 3.21875 -0.921875 C 3.613281 -1.316406 3.820312 -1.796875 3.84375 -2.359375 L 3.84375 -20.3125 C 3.820312 -20.875 3.613281 -21.347656 3.21875 -21.734375 C 2.820312 -22.117188 2.34375 -22.3125 1.78125 -22.3125 L 1.359375 -22.3125 L 1.359375 -22.640625 L 11.1875 -22.640625 L 11.15625 -22.3125 L 10.765625 -22.3125 C 10.203125 -22.3125 9.71875 -22.117188 9.3125 -21.734375 C 8.90625 -21.347656 8.703125 -20.875 8.703125 -20.3125 L 8.703125 -2.359375 C 8.703125 -1.796875 8.90625 -1.316406 9.3125 -0.921875 C 9.71875 -0.523438 10.203125 -0.328125 10.765625 -0.328125 L 11.15625 -0.328125 L 11.1875 0 L 1.359375 0 L 1.359375 -0.328125 Z M 1.78125 -0.328125 "/></g></g></g><g fill="#ffffff" fill-opacity="1"><g transform="translate(278.285531, 343.18518)"><g><path d="M 13.6875 0.453125 C 10 0.453125 7.035156 -0.609375 4.796875 -2.734375 C 2.566406 -4.859375 1.453125 -7.722656 1.453125 -11.328125 C 1.453125 -14.941406 2.566406 -17.804688 4.796875 -19.921875 C 7.035156 -22.035156 10.0625 -23.09375 13.875 -23.09375 C 15.601562 -23.09375 17.273438 -22.925781 18.890625 -22.59375 C 20.503906 -22.257812 21.804688 -21.84375 22.796875 -21.34375 L 22.859375 -15.78125 L 22.578125 -15.78125 C 22.015625 -17.875 21.050781 -19.390625 19.6875 -20.328125 C 18.332031 -21.265625 16.71875 -21.734375 14.84375 -21.734375 C 12.238281 -21.734375 10.234375 -20.800781 8.828125 -18.9375 C 7.429688 -17.070312 6.734375 -14.515625 6.734375 -11.265625 C 6.734375 -8.023438 7.375 -5.488281 8.65625 -3.65625 C 9.9375 -1.820312 11.753906 -0.90625 14.109375 -0.90625 C 15.804688 -0.90625 17.226562 -1.390625 18.375 -2.359375 C 18.9375 -2.859375 19.34375 -3.441406 19.59375 -4.109375 L 19.59375 -9.0625 C 19.59375 -9.53125 19.445312 -9.890625 19.15625 -10.140625 C 18.875 -10.390625 18.460938 -10.515625 17.921875 -10.515625 L 17.40625 -10.515625 L 17.40625 -10.828125 L 26.484375 -10.828125 L 26.484375 -10.515625 L 26 -10.515625 C 25.488281 -10.515625 25.09375 -10.390625 24.8125 -10.140625 C 24.53125 -9.890625 24.390625 -9.53125 24.390625 -9.0625 L 24.390625 -3.71875 C 23.546875 -2.613281 22.148438 -1.640625 20.203125 -0.796875 C 18.265625 0.0351562 16.09375 0.453125 13.6875 0.453125 Z M 13.6875 0.453125 "/></g></g></g><g fill="#ffffff" fill-opacity="1"><g transform="translate(304.508593, 343.18518)"><g><path d="M 26.421875 -22.3125 C 25.671875 -22.3125 25.097656 -21.988281 24.703125 -21.34375 C 24.535156 -21.0625 24.441406 -20.738281 24.421875 -20.375 L 24.421875 -3.6875 C 24.421875 -2.238281 24.515625 -1.019531 24.703125 -0.03125 L 24.8125 0.453125 L 24.515625 0.453125 L 8.1875 -15.109375 L 8.1875 -2.265625 C 8.1875 -1.722656 8.378906 -1.265625 8.765625 -0.890625 C 9.148438 -0.515625 9.613281 -0.328125 10.15625 -0.328125 L 10.765625 -0.328125 L 10.765625 0 L 0.96875 0 L 0.96875 -0.328125 L 1.546875 -0.328125 C 2.109375 -0.328125 2.582031 -0.515625 2.96875 -0.890625 C 3.363281 -1.265625 3.5625 -1.734375 3.5625 -2.296875 L 3.5625 -19.078125 C 3.5625 -20.503906 3.460938 -21.691406 3.265625 -22.640625 L 3.203125 -23.125 L 3.5 -23.125 L 19.828125 -7.5625 L 19.828125 -20.34375 C 19.804688 -20.90625 19.597656 -21.375 19.203125 -21.75 C 18.816406 -22.125 18.359375 -22.3125 17.828125 -22.3125 L 17.234375 -22.3125 L 17.234375 -22.640625 L 27.046875 -22.640625 L 27.046875 -22.3125 Z M 26.421875 -22.3125 "/></g></g></g></svg>